<?xml version="1.0" encoding="UTF-8" standalone="no"?>
<!-- Created with Inkscape (http://www.inkscape.org/) -->

<svg
   version="1.1"
   id="svg1345"
   xml:space="preserve"
   width="1099.7386"
   height="368.62534"
   viewBox="0 0 1099.7386 368.62534"
   xmlns="http://www.w3.org/2000/svg"
   xmlns:svg="http://www.w3.org/2000/svg"><defs
     id="defs1349"><clipPath
       clipPathUnits="userSpaceOnUse"
       id="clipPath1359"><path
         d="M 0,276.469 H 824.804 V 0 H 0 Z"
         id="path1357" /></clipPath><clipPath
       clipPathUnits="userSpaceOnUse"
       id="clipPath1419"><path
         d="m 155.172,183.216 -42.402,-28.78 c -5.974,-4.049 -7.545,-12.258 -3.491,-18.235 v 0 l 28.778,-42.406 c 4.054,-5.977 12.258,-7.548 18.235,-3.491 v 0 l 42.41,28.783 c 5.974,4.054 7.545,12.262 3.491,18.235 v 0 l -28.786,42.406 c -2.529,3.732 -6.676,5.741 -10.889,5.741 v 0 c -2.537,0 -5.101,-0.73 -7.346,-2.253"
         id="path1417" /></clipPath><clipPath
       clipPathUnits="userSpaceOnUse"
       id="clipPath1431"><path
         d="M 0,276.469 H 824.804 V 0 H 0 Z"
         id="path1429" /></clipPath></defs><g
     id="g1351"
     transform="matrix(1.3333333,0,0,-1.3333333,0,368.62533)"><g
       id="g1353"><g
         id="g1355"
         clip-path="url(#clipPath1359)"><g
           id="g1361"
           transform="translate(193.0302,242.2575)"><path
             d="m 0,0 c 0,11.486 -9.31,20.792 -20.796,20.792 -11.482,0 -20.791,-9.306 -20.791,-20.792 0,-11.486 9.309,-20.796 20.791,-20.796 C -9.31,-20.796 0,-11.486 0,0"
             style="fill:#3a3a36;fill-opacity:1;fill-rule:nonzero;stroke:none"
             id="path1363" /></g><g
           id="g1365"
           transform="translate(172.2354,202.0372)"><path
             d="m 0,0 c -27.448,0 -46.995,-16.769 -51.568,-21.339 -4.573,-4.577 -9.116,-8.095 -13.546,-4.352 -2.696,2.281 -4.271,5.823 1.071,11.269 7.455,7.607 29.019,28.48 64.043,28.48 35.028,0 56.584,-20.873 64.039,-28.48 5.342,-5.446 3.767,-8.988 1.075,-11.269 -4.43,-3.743 -8.969,-0.225 -13.546,4.352 C 46.995,-16.769 27.448,0 0,0"
             style="fill:#3a3a36;fill-opacity:1;fill-rule:nonzero;stroke:none"
             id="path1367" /></g><g
           id="g1369"
           transform="translate(172.2354,202.9767)"><path
             d="m 0,0 c 29.745,0 50.016,-19.403 52.231,-21.614 2.937,-2.937 6.048,-5.652 8.934,-5.652 1.167,0 2.265,0.442 3.347,1.35 1.374,1.172 2.08,2.386 2.134,3.716 0.089,1.8 -1.012,3.879 -3.274,6.183 C 45.024,2.688 23.701,12.18 0,12.18 c -23.705,0 -45.024,-9.492 -63.376,-28.197 -2.258,-2.304 -3.363,-4.383 -3.278,-6.183 0.062,-1.33 0.764,-2.544 2.145,-3.716 1.079,-0.908 2.169,-1.35 3.344,-1.35 2.886,0 5.997,2.715 8.934,5.652 C -50.02,-19.403 -29.745,0 0,0 m 61.165,-29.143 c -3.565,0 -7.041,2.979 -10.26,6.198 C 48.748,-20.788 28.992,-1.877 0,-1.877 c -28.992,0 -48.748,-18.911 -50.905,-21.068 -3.219,-3.219 -6.687,-6.198 -10.26,-6.198 -1.617,0 -3.142,0.601 -4.554,1.796 -1.776,1.505 -2.723,3.204 -2.808,5.058 -0.109,2.339 1.175,4.895 3.809,7.584 18.716,19.081 40.493,28.759 64.718,28.759 24.225,0 45.994,-9.678 64.71,-28.759 2.638,-2.689 3.922,-5.245 3.817,-7.584 -0.089,-1.854 -1.032,-3.553 -2.804,-5.054 -1.412,-1.199 -2.948,-1.8 -4.558,-1.8"
             style="fill:#3a3a36;fill-opacity:1;fill-rule:nonzero;stroke:none"
             id="path1371" /></g><g
           id="g1373"
           transform="translate(56.0083,177.4436)"><path
             d="m 0,0 c -11.486,0 -20.796,-9.31 -20.796,-20.796 0,-11.485 9.31,-20.791 20.796,-20.791 11.478,0 20.792,9.306 20.792,20.791 C 20.792,-9.31 11.478,0 0,0"
             style="fill:#3a3a36;fill-opacity:1;fill-rule:nonzero;stroke:none"
             id="path1375" /></g><g
           id="g1377"
           transform="translate(93.4496,156.6492)"><path
             d="m 0,0 c 0,-27.452 16.769,-46.995 21.339,-51.568 4.573,-4.577 8.099,-9.116 4.348,-13.546 -2.277,-2.696 -5.822,-4.271 -11.265,1.071 -7.61,7.455 -28.48,29.015 -28.48,64.043 0,35.024 20.87,56.584 28.48,64.039 5.443,5.342 8.988,3.767 11.265,1.075 3.751,-4.43 0.225,-8.973 -4.348,-13.546 C 16.769,46.995 0,27.448 0,0"
             style="fill:#3a3a36;fill-opacity:1;fill-rule:nonzero;stroke:none"
             id="path1379" /></g><g
           id="g1381"
           transform="translate(114.5136,223.3029)"><path
             d="m 0,0 c -1.749,0 -3.767,-1.102 -5.985,-3.282 -18.713,-18.344 -28.201,-39.667 -28.201,-63.372 0,-23.708 9.488,-45.032 28.201,-63.376 3.999,-3.921 7.137,-4.379 9.891,-1.132 3.049,3.599 0.617,7.362 -4.294,12.277 -2.215,2.211 -21.614,22.479 -21.614,52.231 0,29.753 19.399,50.021 21.614,52.232 4.911,4.911 7.343,8.673 4.294,12.281 C 2.684,-0.702 1.412,0 0,0 m 0,-135.185 c -2.261,0 -4.713,1.28 -7.296,3.813 -19.089,18.713 -28.768,40.482 -28.768,64.718 0,24.233 9.679,46.002 28.768,64.711 4.821,4.736 9.236,5.023 12.63,1.008 4.779,-5.64 -1.191,-11.606 -4.399,-14.814 -2.153,-2.157 -21.063,-21.905 -21.063,-50.905 0,-28.996 18.91,-48.748 21.063,-50.904 3.212,-3.208 9.178,-9.174 4.406,-14.818 -1.582,-1.866 -3.374,-2.809 -5.341,-2.809"
             style="fill:#3a3a36;fill-opacity:1;fill-rule:nonzero;stroke:none"
             id="path1383" /></g><g
           id="g1385"
           transform="translate(116.7293,34.2195)"><path
             d="m 0,0 c 0,-11.486 9.306,-20.799 20.792,-20.799 11.482,0 20.795,9.313 20.795,20.799 0,11.486 -9.313,20.796 -20.795,20.796 C 9.306,20.796 0,11.486 0,0"
             style="fill:#3a3a36;fill-opacity:1;fill-rule:nonzero;stroke:none"
             id="path1387" /></g><g
           id="g1389"
           transform="translate(137.5203,74.4425)"><path
             d="m 0,0 c 27.452,0 46.995,16.761 51.568,21.335 4.577,4.577 9.116,8.099 13.546,4.352 C 67.81,23.406 69.385,19.865 64.043,14.422 56.588,6.812 35.028,-14.062 0,-14.062 c -35.024,0 -56.584,20.874 -64.047,28.484 -5.338,5.443 -3.763,8.984 -1.067,11.265 4.43,3.747 8.973,0.225 13.546,-4.352 C -46.991,16.761 -27.444,0 0,0"
             style="fill:#3a3a36;fill-opacity:1;fill-rule:nonzero;stroke:none"
             id="path1391" /></g><g
           id="g1393"
           transform="translate(76.3519,100.7673)"><path
             d="m 0,0 c -1.168,0 -2.258,-0.442 -3.34,-1.358 -1.381,-1.163 -2.083,-2.378 -2.141,-3.708 -0.085,-1.8 1.016,-3.879 3.274,-6.183 18.348,-18.713 39.671,-28.197 63.376,-28.197 23.712,0 45.032,9.484 63.372,28.197 2.261,2.304 3.363,4.383 3.281,6.183 -0.066,1.33 -0.764,2.545 -2.141,3.708 -1.082,0.916 -2.172,1.358 -3.344,1.358 -2.889,0 -6,-2.715 -8.937,-5.652 -2.211,-2.211 -22.463,-21.614 -52.231,-21.614 -29.753,0 -50.017,19.403 -52.232,21.614 C 6.005,-2.715 2.886,0 0,0 m 61.169,-41.324 c -24.225,0 -46.002,9.679 -64.714,28.768 -2.642,2.684 -3.922,5.232 -3.814,7.579 0.09,1.85 1.032,3.553 2.809,5.051 1.412,1.191 2.944,1.803 4.55,1.803 3.573,0 7.044,-2.979 10.264,-6.202 2.161,-2.157 21.901,-21.063 50.905,-21.063 29.015,0 48.752,18.906 50.905,21.063 3.219,3.223 6.691,6.202 10.263,6.202 1.61,0 3.139,-0.612 4.551,-1.803 1.776,-1.498 2.723,-3.201 2.808,-5.051 0.113,-2.347 -1.175,-4.895 -3.809,-7.579 -18.713,-19.089 -40.486,-28.768 -64.718,-28.768"
             style="fill:#3a3a36;fill-opacity:1;fill-rule:nonzero;stroke:none"
             id="path1395" /></g><g
           id="g1397"
           transform="translate(253.7529,99.0364)"><path
             d="m 0,0 c 11.486,0 20.788,9.302 20.788,20.788 0,11.486 -9.302,20.799 -20.788,20.799 -11.486,0 -20.796,-9.313 -20.796,-20.799 C -20.796,9.302 -11.486,0 0,0"
             style="fill:#3a3a36;fill-opacity:1;fill-rule:nonzero;stroke:none"
             id="path1399" /></g><g
           id="g1401"
           transform="translate(216.3092,119.8242)"><path
             d="m 0,0 c 0,27.452 -16.765,46.995 -21.343,51.568 -4.573,4.573 -8.091,9.124 -4.348,13.55 2.281,2.692 5.823,4.27 11.269,-1.071 C -6.815,56.591 14.054,35.028 14.054,0 c 0,-35.02 -20.869,-56.58 -28.476,-64.039 -5.446,-5.342 -8.988,-3.763 -11.269,-1.075 -3.743,4.434 -0.225,8.973 4.348,13.55 C -16.765,-46.991 0,-27.444 0,0"
             style="fill:#3a3a36;fill-opacity:1;fill-rule:nonzero;stroke:none"
             id="path1403" /></g><g
           id="g1405"
           transform="translate(195.2421,186.4846)"><path
             d="m 0,0 c -1.408,0 -2.68,-0.702 -3.906,-2.149 -3.045,-3.6 -0.613,-7.366 4.298,-12.273 2.207,-2.219 21.614,-22.491 21.614,-52.239 0,-29.741 -19.407,-50.017 -21.614,-52.228 -4.911,-4.911 -7.343,-8.681 -4.298,-12.281 2.75,-3.251 5.892,-2.781 9.895,1.14 18.709,18.348 28.193,39.671 28.193,63.369 0,23.704 -9.484,45.031 -28.193,63.379 C 3.77,-1.102 1.749,0 0,0 m -0.004,-135.189 c -1.959,0 -3.755,0.947 -5.334,2.809 -4.771,5.644 1.195,11.61 4.403,14.818 2.153,2.156 21.067,21.912 21.067,50.901 0,28.995 -18.914,48.751 -21.067,50.908 -3.208,3.204 -9.174,9.174 -4.403,14.814 3.402,4.019 7.813,3.724 12.638,-1.001 19.085,-18.72 28.764,-40.493 28.764,-64.721 0,-24.217 -9.679,-45.994 -28.764,-64.711 -2.579,-2.533 -5.042,-3.817 -7.304,-3.817"
             style="fill:#3a3a36;fill-opacity:1;fill-rule:nonzero;stroke:none"
             id="path1407" /></g><g
           id="g1409"
           transform="translate(155.1715,183.2153)"><path
             d="m 0,0 -42.402,-28.779 c -5.974,-4.049 -7.545,-12.257 -3.491,-18.235 l 28.779,-42.406 c 4.053,-5.977 12.257,-7.548 18.235,-3.491 l 42.41,28.783 c 5.973,4.053 7.544,12.261 3.491,18.235 L 18.235,-3.487 C 15.706,0.244 11.56,2.254 7.347,2.254 4.81,2.254 2.246,1.524 0,0"
             style="fill:#3a3a36;fill-opacity:1;fill-rule:nonzero;stroke:none"
             id="path1411" /></g></g></g><g
       id="g1413"><g
         id="g1415"
         clip-path="url(#clipPath1419)"><g
           id="g1421"
           transform="translate(130.4804,229.2129)"><path
             d="M 0,0 118.731,-68.549 50.511,-186.71 -68.22,-118.161 Z"
             style="fill:#3a3a36;fill-opacity:1;fill-rule:nonzero;stroke:none"
             id="path1423" /></g></g></g><g
       id="g1425"><g
         id="g1427"
         clip-path="url(#clipPath1431)"><g
           id="g1433"
           transform="translate(363.3872,154.1674)"><path
             d="m 0,0 v -9.868 c -3.522,-2.743 -7.238,-4.112 -11.152,-4.112 -6.261,0 -11.098,3.204 -14.512,9.608 -3.413,6.401 -5.12,15.544 -5.12,27.421 0,11.882 1.714,21.164 5.147,27.852 3.433,6.687 8.329,10.031 14.698,10.031 3.057,0 6.42,-1.264 10.082,-3.79 v -9.496 c -3.127,3.022 -6.261,4.535 -9.391,4.535 -3.767,0 -6.498,-2.211 -8.185,-6.629 -1.692,-4.422 -2.533,-11.781 -2.533,-22.072 0,-10.194 0.849,-17.522 2.556,-21.998 1.711,-4.473 4.539,-6.711 8.483,-6.711 2.708,0 6.013,1.746 9.927,5.229"
             style="fill:#434142;fill-opacity:1;fill-rule:nonzero;stroke:none"
             id="path1435" /></g><g
           id="g1437"
           transform="translate(376.5384,169.8547)"><path
             d="M 0,0 H 9.442 C 9.442,9.034 7.809,13.553 4.538,13.553 1.513,13.553 0,9.034 0,0 m 17.017,-17.339 v -8.43 c -3.021,-2.847 -6.346,-4.27 -9.977,-4.27 -4.907,0 -8.712,2.207 -11.416,6.617 -2.703,4.411 -4.057,10.741 -4.057,18.996 0,8.037 1.187,14.287 3.553,18.751 2.362,4.461 5.664,6.696 9.896,6.696 8.821,0 13.138,-9.143 12.963,-27.421 H 0.109 c 0,-10.497 2.87,-15.742 8.611,-15.742 3.123,0 5.888,1.602 8.297,4.803"
             style="fill:#434142;fill-opacity:1;fill-rule:nonzero;stroke:none"
             id="path1439" /></g><g
           id="g1441"
           transform="translate(402.8155,141.1509)"><path
             d="m 0,0 v 48.391 h 8.538 v -5.229 h 0.209 c 2.386,4.019 5.373,6.028 8.965,6.028 3.204,0 5.772,-1.264 7.711,-3.786 1.936,-2.525 2.906,-6.051 2.906,-10.562 V 0 h -8.534 v 34.624 c 0,4.663 -1.529,6.99 -4.589,6.99 -1.707,0 -3.247,-0.88 -4.612,-2.641 C 9.221,37.212 8.538,36.172 8.538,35.854 V 0 Z"
             style="fill:#434142;fill-opacity:1;fill-rule:nonzero;stroke:none"
             id="path1443" /></g><g
           id="g1445"
           transform="translate(458.8635,149.2589)"><path
             d="m 0,0 v -7.576 c -2.878,-1.245 -5.388,-1.866 -7.521,-1.866 -5.978,0 -8.965,3.604 -8.965,10.819 v 31.436 h -5.547 v 0.749 c 4.054,4.957 8.499,11.357 13.34,19.209 h 0.741 V 40.284 H 0 V 32.813 H -7.952 V 5.221 c 0,-2.56 0.244,-4.29 0.721,-5.194 0.481,-0.908 1.366,-1.361 2.642,-1.361 1.175,0 2.704,0.446 4.589,1.334"
             style="fill:#434142;fill-opacity:1;fill-rule:nonzero;stroke:none"
             id="path1447" /></g><g
           id="g1449"
           transform="translate(464.5478,141.1509)"><path
             d="M 0,0 V 48.391 H 8.538 V 35.319 h 0.213 c 1.703,5.764 3.123,9.515 4.24,11.257 1.117,1.741 2.696,2.614 4.721,2.614 1.567,0 3.021,-0.481 4.375,-1.439 L 21.443,39 c -1.167,0.818 -2.416,1.226 -3.731,1.226 -2.665,0 -4.865,-2.398 -6.591,-7.2 C 9.395,28.224 8.538,23.616 8.538,19.209 V 0 Z"
             style="fill:#434142;fill-opacity:1;fill-rule:nonzero;stroke:none"
             id="path1451" /></g><g
           id="g1453"
           transform="translate(503.9214,182.7657)"><path
             d="m 0,0 c -4.213,0 -6.323,-5.815 -6.323,-17.448 0,-11.591 2.18,-17.394 6.536,-17.394 4.217,0 6.323,5.803 6.323,17.394 C 6.536,-5.815 4.36,0 0,0 m 0.081,-42.949 c -4.658,0 -8.351,2.266 -11.07,6.804 -2.72,4.535 -4.081,10.764 -4.081,18.697 0,7.933 1.361,14.174 4.081,18.732 2.719,4.55 6.412,6.827 11.07,6.827 4.659,0 8.356,-2.277 11.095,-6.827 2.742,-4.558 4.111,-10.799 4.111,-18.732 0,-7.933 -1.369,-14.162 -4.111,-18.697 -2.739,-4.538 -6.436,-6.804 -11.095,-6.804"
             style="fill:#434142;fill-opacity:1;fill-rule:nonzero;stroke:none"
             id="path1455" /></g><g
           id="g1457"
           transform="translate(543.0031,141.1509)"><path
             d="m 0,0 v 72.984 h 7.63 l 16.164,-45.125 0.213,0.097 V 72.984 H 32.65 V 0 H 25.02 L 8.856,45.447 8.643,45.455 V 0 Z"
             style="fill:#434142;fill-opacity:1;fill-rule:nonzero;stroke:none"
             id="path1459" /></g><g
           id="g1461"
           transform="translate(602.9434,153.475)"><path
             d="M 0,0 V 12.483 C -6.684,8.429 -10.027,4.232 -10.027,-0.105 c 0,-1.606 0.388,-2.909 1.167,-3.921 0.776,-1.013 1.769,-1.525 2.972,-1.525 1.481,0 2.835,0.811 4.061,2.432 C -0.609,-1.505 0,-0.462 0,0 m 13.235,-3.359 v -6.459 c -2.68,-2.385 -4.891,-3.572 -6.644,-3.572 -3.181,0 -5.268,2.028 -6.265,6.082 -3.123,-4.232 -6.211,-6.35 -9.259,-6.35 -2.518,0 -4.729,1.218 -6.626,3.654 -1.893,2.436 -2.843,5.31 -2.843,8.615 0,3.81 1.326,7.045 3.987,9.713 2.658,2.665 7.464,6.009 14.415,10.028 v 4.643 c 0,4.197 -1.684,6.296 -5.054,6.296 -3.437,0 -7.495,-2.65 -12.177,-7.948 v 9.817 c 4.341,4.159 8.647,6.242 12.914,6.242 3.553,0 6.586,-1.176 9.096,-3.522 2.506,-2.347 3.759,-5.516 3.759,-9.496 V -2.933 c 0,-1.885 0.446,-2.827 1.334,-2.827 0.536,0 1.653,0.799 3.363,2.401"
             style="fill:#434142;fill-opacity:1;fill-rule:nonzero;stroke:none"
             id="path1463" /></g><g
           id="g1465"
           transform="translate(645.924,150.6476)"><path
             d="m 0,0 v -8.162 c -2.742,-1.78 -5.551,-2.668 -8.433,-2.668 -4.942,0 -9.069,2.362 -12.374,7.094 -3.309,4.729 -4.962,10.742 -4.962,18.034 0,7.611 1.634,13.837 4.904,18.678 3.274,4.833 7.42,7.254 12.432,7.254 2.382,0 4.946,-0.586 7.684,-1.765 v -8.748 c -2.56,1.599 -4.674,2.402 -6.35,2.402 -3.021,0 -5.43,-1.575 -7.23,-4.725 -1.792,-3.142 -2.696,-7.425 -2.696,-12.828 0,-5.299 0.981,-9.508 2.936,-12.619 1.959,-3.111 4.574,-4.67 7.844,-4.67 1.924,0 4.003,0.908 6.245,2.723"
             style="fill:#434142;fill-opacity:1;fill-rule:nonzero;stroke:none"
             id="path1467" /></g><path
           d="m 651.341,189.542 h 8.534 v -48.391 h -8.534 z m 4.267,15.741 c -1.354,0 -2.51,0.477 -3.472,1.439 -0.962,0.962 -1.439,2.114 -1.439,3.468 0,1.389 0.477,2.553 1.439,3.495 0.962,0.943 2.118,1.412 3.472,1.412 1.35,0 2.506,-0.469 3.468,-1.412 0.958,-0.942 1.439,-2.106 1.439,-3.495 0,-1.354 -0.481,-2.506 -1.439,-3.468 -0.962,-0.962 -2.118,-1.439 -3.468,-1.439"
           style="fill:#434142;fill-opacity:1;fill-rule:nonzero;stroke:none"
           id="path1469" /><g
           id="g1471"
           transform="translate(682.8192,182.7657)"><path
             d="m 0,0 c -4.217,0 -6.323,-5.815 -6.323,-17.448 0,-11.591 2.18,-17.394 6.536,-17.394 4.213,0 6.319,5.803 6.319,17.394 C 6.532,-5.815 4.356,0 0,0 m 0.078,-42.949 c -4.655,0 -8.348,2.266 -11.067,6.804 -2.723,4.535 -4.085,10.764 -4.085,18.697 0,7.933 1.362,14.174 4.085,18.732 2.719,4.55 6.412,6.827 11.067,6.827 4.662,0 8.359,-2.277 11.098,-6.827 2.738,-4.558 4.111,-10.799 4.111,-18.732 0,-7.933 -1.373,-14.162 -4.111,-18.697 -2.739,-4.538 -6.436,-6.804 -11.098,-6.804"
             style="fill:#434142;fill-opacity:1;fill-rule:nonzero;stroke:none"
             id="path1473" /></g><g
           id="g1475"
           transform="translate(705.9736,141.1509)"><path
             d="m 0,0 v 48.391 h 8.542 v -5.229 h 0.209 c 2.382,4.019 5.373,6.028 8.965,6.028 3.2,0 5.772,-1.264 7.707,-3.786 1.936,-2.525 2.913,-6.051 2.913,-10.562 V 0 h -8.541 v 34.624 c 0,4.663 -1.529,6.99 -4.585,6.99 -1.711,0 -3.247,-0.88 -4.616,-2.641 C 9.224,37.212 8.542,36.172 8.542,35.854 V 0 Z"
             style="fill:#434142;fill-opacity:1;fill-rule:nonzero;stroke:none"
             id="path1477" /></g><g
           id="g1479"
           transform="translate(760.1562,153.475)"><path
             d="M 0,0 V 12.483 C -6.688,8.429 -10.027,4.232 -10.027,-0.105 c 0,-1.606 0.384,-2.909 1.163,-3.921 0.78,-1.013 1.773,-1.525 2.972,-1.525 1.485,0 2.839,0.811 4.061,2.432 C -0.609,-1.505 0,-0.462 0,0 m 13.231,-3.359 v -6.459 c -2.676,-2.385 -4.891,-3.572 -6.644,-3.572 -3.177,0 -5.268,2.028 -6.265,6.082 -3.123,-4.232 -6.207,-6.35 -9.256,-6.35 -2.521,0 -4.732,1.218 -6.629,3.654 -1.893,2.436 -2.843,5.31 -2.843,8.615 0,3.81 1.33,7.045 3.991,9.713 2.654,2.665 7.464,6.009 14.415,10.028 v 4.643 c 0,4.197 -1.684,6.296 -5.054,6.296 -3.437,0 -7.499,-2.65 -12.181,-7.948 v 9.817 c 4.341,4.159 8.647,6.242 12.914,6.242 3.557,0 6.59,-1.176 9.096,-3.522 2.51,-2.347 3.763,-5.516 3.763,-9.496 V -2.933 c 0,-1.885 0.446,-2.827 1.33,-2.827 0.536,0 1.653,0.799 3.363,2.401"
             style="fill:#434142;fill-opacity:1;fill-rule:nonzero;stroke:none"
             id="path1481" /></g><path
           d="m 778.325,214.135 h 8.538 v -72.984 h -8.538 z"
           style="fill:#434142;fill-opacity:1;fill-rule:nonzero;stroke:none"
           id="path1483" /><g
           id="g1485"
           transform="translate(411.2664,101.7421)"><path
             d="m 0,0 8.161,20.175 h 6.067 V -34.807 H 7.316 L 7.758,4.942 7.56,5.105 0.648,-12.983 H -0.64 L -7.553,5.105 -7.754,4.942 -7.316,-34.807 h -6.912 v 54.982 h 6.07 z"
             style="fill:#434142;fill-opacity:1;fill-rule:nonzero;stroke:none"
             id="path1487" /></g><g
           id="g1489"
           transform="translate(438.4601,88.5591)"><path
             d="M 0,0 H 7.11 C 7.11,6.808 5.881,10.21 3.417,10.21 1.137,10.21 0,6.808 0,0 m 12.816,-13.065 v -6.35 c -2.273,-2.141 -4.779,-3.211 -7.513,-3.211 -3.697,0 -6.568,1.66 -8.6,4.98 -2.037,3.321 -3.053,8.092 -3.053,14.31 0,6.055 0.888,10.764 2.669,14.128 1.784,3.363 4.271,5.042 7.459,5.042 6.645,0 9.899,-6.885 9.764,-20.656 H 0.078 c 0,-7.905 2.168,-11.858 6.493,-11.858 2.347,0 4.434,1.203 6.245,3.615"
             style="fill:#434142;fill-opacity:1;fill-rule:nonzero;stroke:none"
             id="path1491" /></g><g
           id="g1493"
           transform="translate(494.5919,66.9338)"><path
             d="m 0,0 h -6.431 v 25.924 c 0,3.615 -1.153,5.426 -3.457,5.426 -1.769,0 -3.471,-1.423 -5.105,-4.259 V 0 h -6.431 v 25.842 c 0,3.674 -1.179,5.508 -3.538,5.508 -1.61,0 -3.285,-1.446 -5.023,-4.34 V 0 h -6.432 v 36.455 h 6.432 v -3.941 h 0.159 c 1.769,3.034 4.019,4.546 6.753,4.546 3.135,0 5.625,-1.827 7.475,-5.469 1.288,1.877 2.448,3.258 3.48,4.139 1.028,0.888 2.374,1.33 4.038,1.33 2.386,0 4.325,-0.934 5.83,-2.792 C -0.753,32.406 0,29.756 0,26.327 Z"
             style="fill:#434142;fill-opacity:1;fill-rule:nonzero;stroke:none"
             id="path1495" /></g><g
           id="g1497"
           transform="translate(511.193,98.2858)"><path
             d="m 0,0 c -3.177,0 -4.763,-4.383 -4.763,-13.146 0,-8.736 1.64,-13.104 4.922,-13.104 3.177,0 4.767,4.368 4.767,13.104 C 4.926,-4.383 3.282,0 0,0 m 0.058,-32.355 c -3.507,0 -6.292,1.707 -8.34,5.124 -2.048,3.418 -3.072,8.111 -3.072,14.085 0,5.978 1.024,10.679 3.072,14.112 2.048,3.425 4.833,5.144 8.34,5.144 3.511,0 6.296,-1.719 8.36,-5.144 2.067,-3.433 3.099,-8.134 3.099,-14.112 0,-5.974 -1.032,-10.667 -3.099,-14.085 -2.064,-3.417 -4.849,-5.124 -8.36,-5.124"
             style="fill:#434142;fill-opacity:1;fill-rule:nonzero;stroke:none"
             id="path1499" /></g><g
           id="g1501"
           transform="translate(528.7973,66.9338)"><path
             d="M 0,0 V 36.455 H 6.431 V 26.606 H 6.59 c 1.288,4.341 2.351,7.169 3.197,8.484 0.845,1.311 2.029,1.97 3.557,1.97 1.175,0 2.277,-0.364 3.297,-1.09 L 16.16,29.38 c -0.888,0.617 -1.827,0.927 -2.816,0.927 -2.009,0 -3.666,-1.808 -4.965,-5.427 C 7.079,21.261 6.431,17.789 6.431,14.469 V 0 Z"
             style="fill:#434142;fill-opacity:1;fill-rule:nonzero;stroke:none"
             id="path1503" /></g><path
           d="m 548.472,103.388 h 6.431 V 66.933 h -6.431 z m 3.212,11.859 c -1.016,0 -1.885,0.36 -2.611,1.086 -0.721,0.721 -1.086,1.594 -1.086,2.61 0,1.044 0.365,1.924 1.086,2.63 0.726,0.714 1.595,1.071 2.611,1.071 1.02,0 1.893,-0.357 2.618,-1.071 0.722,-0.706 1.083,-1.586 1.083,-2.63 0,-1.016 -0.361,-1.889 -1.083,-2.61 -0.725,-0.726 -1.598,-1.086 -2.618,-1.086"
           style="fill:#434142;fill-opacity:1;fill-rule:nonzero;stroke:none"
           id="path1505" /><g
           id="g1507"
           transform="translate(574.6182,76.2187)"><path
             d="M 0,0 V 9.407 C -5.035,6.35 -7.556,3.189 -7.556,-0.081 c 0,-1.203 0.294,-2.188 0.876,-2.952 0.59,-0.765 1.335,-1.149 2.242,-1.149 1.121,0 2.138,0.609 3.057,1.831 C -0.458,-1.133 0,-0.349 0,0 m 9.969,-2.533 v -4.864 c -2.021,-1.796 -3.689,-2.692 -5.004,-2.692 -2.397,0 -3.968,1.528 -4.725,4.581 -2.346,-3.189 -4.674,-4.779 -6.97,-4.779 -1.901,0 -3.565,0.915 -4.996,2.75 -1.424,1.835 -2.142,3.999 -2.142,6.494 0,2.862 1.001,5.302 3.01,7.315 1.998,2.01 5.621,4.527 10.858,7.557 v 3.495 c 0,3.161 -1.265,4.744 -3.805,4.744 -2.592,0 -5.648,-1.998 -9.178,-5.989 v 7.393 c 3.274,3.134 6.513,4.702 9.728,4.702 2.681,0 4.966,-0.881 6.851,-2.65 1.889,-1.769 2.835,-4.154 2.835,-7.157 V -2.211 c 0,-1.42 0.338,-2.13 1.005,-2.13 0.404,0 1.245,0.602 2.533,1.808"
             style="fill:#434142;fill-opacity:1;fill-rule:nonzero;stroke:none"
             id="path1509" /></g><g
           id="g1511"
           transform="translate(600.5007,66.9338)"><path
             d="M 0,0 V 54.986 H 7.033 V 30.788 h 10.531 v 24.198 h 7.033 V 0 H 17.564 V 24.198 H 7.033 V 0 Z"
             style="fill:#434142;fill-opacity:1;fill-rule:nonzero;stroke:none"
             id="path1513" /></g><path
           d="m 633.233,103.388 h 6.432 V 66.933 h -6.432 z m 3.22,11.859 c -1.02,0 -1.893,0.36 -2.611,1.086 -0.721,0.721 -1.09,1.594 -1.09,2.61 0,1.044 0.369,1.924 1.09,2.63 0.718,0.714 1.591,1.071 2.611,1.071 1.02,0 1.889,-0.357 2.611,-1.071 0.725,-0.706 1.086,-1.586 1.086,-2.63 0,-1.016 -0.361,-1.889 -1.086,-2.61 -0.722,-0.726 -1.591,-1.086 -2.611,-1.086"
           style="fill:#434142;fill-opacity:1;fill-rule:nonzero;stroke:none"
           id="path1515" /><g
           id="g1517"
           transform="translate(645.1548,68.9024)"><path
             d="M 0,0 V 7.075 C 2.386,4.449 4.5,3.134 6.346,3.134 c 0.916,0 1.68,0.295 2.297,0.889 0.616,0.589 0.923,1.338 0.923,2.249 0,1.661 -1.211,4.298 -3.639,7.918 -2.424,3.615 -3.945,6.291 -4.562,8.018 -0.616,1.73 -0.923,3.305 -0.923,4.724 0,2.463 0.745,4.508 2.231,6.129 1.489,1.618 3.367,2.428 5.648,2.428 2.059,0 4.1,-0.775 6.105,-2.327 v -6.071 c -2.087,1.715 -3.922,2.572 -5.504,2.572 -1.715,0 -2.576,-0.911 -2.576,-2.731 0,-1.532 1.257,-4.042 3.763,-7.537 2.502,-3.499 4.1,-6.152 4.779,-7.96 0.686,-1.807 1.028,-3.475 1.028,-5.004 0,-2.707 -0.826,-4.949 -2.491,-6.734 C 11.761,-2.083 9.69,-2.971 7.196,-2.971 4.833,-2.971 2.436,-1.982 0,0"
             style="fill:#434142;fill-opacity:1;fill-rule:nonzero;stroke:none"
             id="path1519" /></g><g
           id="g1521"
           transform="translate(680.5434,73.0414)"><path
             d="m 0,0 v -5.706 c -2.168,-0.935 -4.057,-1.404 -5.663,-1.404 -4.504,0 -6.754,2.715 -6.754,8.146 v 23.685 h -4.182 v 0.567 c 3.057,3.731 6.405,8.557 10.047,14.465 h 0.567 V 30.35 H 0 V 24.721 H -5.985 V 3.933 c 0,-1.928 0.178,-3.231 0.543,-3.914 0.36,-0.682 1.024,-1.024 1.986,-1.024 0.884,0 2.04,0.338 3.456,1.005"
             style="fill:#434142;fill-opacity:1;fill-rule:nonzero;stroke:none"
             id="path1523" /></g><g
           id="g1525"
           transform="translate(692.1046,109.3376)"><path
             d="M 0,0 1.726,12.021 H 9.562 L 3.735,0 Z m 2.63,-11.051 c -3.177,0 -4.764,-4.384 -4.764,-13.147 0,-8.735 1.641,-13.103 4.923,-13.103 3.173,0 4.763,4.368 4.763,13.103 0,8.763 -1.64,13.147 -4.922,13.147 m 0.062,-32.356 c -3.514,0 -6.288,1.707 -8.34,5.125 -2.052,3.417 -3.076,8.111 -3.076,14.084 0,5.978 1.024,10.68 3.076,14.112 2.052,3.426 4.826,5.14 8.34,5.14 3.507,0 6.296,-1.714 8.355,-5.14 2.064,-3.432 3.096,-8.134 3.096,-14.112 0,-5.973 -1.032,-10.667 -3.096,-14.084 -2.059,-3.418 -4.848,-5.125 -8.355,-5.125"
             style="fill:#434142;fill-opacity:1;fill-rule:nonzero;stroke:none"
             id="path1527" /></g><g
           id="g1529"
           transform="translate(712.3408,66.9338)"><path
             d="M 0,0 V 36.455 H 6.431 V 26.606 H 6.59 c 1.284,4.341 2.351,7.169 3.197,8.484 0.845,1.311 2.029,1.97 3.557,1.97 1.179,0 2.277,-0.364 3.297,-1.09 L 16.16,29.38 c -0.884,0.617 -1.827,0.927 -2.816,0.927 -2.009,0 -3.666,-1.808 -4.965,-5.427 C 7.079,21.261 6.431,17.789 6.431,14.469 V 0 Z"
             style="fill:#434142;fill-opacity:1;fill-rule:nonzero;stroke:none"
             id="path1531" /></g><path
           d="m 732.017,103.388 h 6.431 V 66.933 h -6.431 z m 3.216,11.859 c -1.02,0 -1.893,0.36 -2.615,1.086 -0.721,0.721 -1.086,1.594 -1.086,2.61 0,1.044 0.365,1.924 1.086,2.63 0.722,0.714 1.595,1.071 2.615,1.071 1.02,0 1.889,-0.357 2.611,-1.071 0.721,-0.706 1.09,-1.586 1.09,-2.63 0,-1.016 -0.369,-1.889 -1.09,-2.61 -0.722,-0.726 -1.591,-1.086 -2.611,-1.086"
           style="fill:#434142;fill-opacity:1;fill-rule:nonzero;stroke:none"
           id="path1533" /><g
           id="g1535"
           transform="translate(763.9519,74.0868)"><path
             d="m 0,0 v -6.148 c -2.064,-1.339 -4.182,-2.01 -6.35,-2.01 -3.728,0 -6.835,1.781 -9.329,5.346 -2.49,3.561 -3.736,8.091 -3.736,13.584 0,5.737 1.23,10.427 3.697,14.069 2.463,3.643 5.586,5.466 9.368,5.466 1.792,0 3.72,-0.442 5.788,-1.327 v -6.594 c -1.932,1.206 -3.527,1.812 -4.787,1.812 -2.273,0 -4.089,-1.184 -5.443,-3.558 -1.357,-2.374 -2.032,-5.593 -2.032,-9.666 0,-3.992 0.737,-7.161 2.211,-9.508 1.474,-2.343 3.444,-3.514 5.908,-3.514 1.447,0 3.014,0.683 4.705,2.048"
             style="fill:#434142;fill-opacity:1;fill-rule:nonzero;stroke:none"
             id="path1537" /></g><g
           id="g1539"
           transform="translate(780.4503,76.2187)"><path
             d="M 0,0 V 9.407 C -5.039,6.35 -7.556,3.189 -7.556,-0.081 c 0,-1.203 0.291,-2.188 0.88,-2.952 0.586,-0.765 1.331,-1.149 2.238,-1.149 1.121,0 2.138,0.609 3.061,1.831 C -0.462,-1.133 0,-0.349 0,0 m 9.969,-2.533 v -4.864 c -2.017,-1.796 -3.685,-2.692 -5.008,-2.692 -2.389,0 -3.968,1.528 -4.717,4.581 -2.354,-3.189 -4.674,-4.779 -6.978,-4.779 -1.897,0 -3.557,0.915 -4.988,2.75 -1.428,1.835 -2.146,3.999 -2.146,6.494 0,2.862 1.001,5.302 3.007,7.315 2.005,2.01 5.62,4.527 10.861,7.557 v 3.495 c 0,3.161 -1.268,4.744 -3.805,4.744 -2.595,0 -5.652,-1.998 -9.178,-5.989 v 7.393 c 3.27,3.134 6.513,4.702 9.728,4.702 2.677,0 4.966,-0.881 6.851,-2.65 1.893,-1.769 2.835,-4.154 2.835,-7.157 V -2.211 c 0,-1.42 0.334,-2.13 1.005,-2.13 0.4,0 1.245,0.602 2.533,1.808"
             style="fill:#434142;fill-opacity:1;fill-rule:nonzero;stroke:none"
             id="path1541" /></g><g
           id="g1543"
           transform="translate(348.1647,75.7412)"><path
             d="m 0,0 v 18.418 c -0.853,2.412 -2.242,3.615 -4.162,3.615 -1.703,0 -3.057,-1.171 -4.042,-3.511 -0.989,-2.342 -1.482,-5.64 -1.482,-9.891 0,-8.053 1.722,-12.079 5.167,-12.079 1.28,0 2.351,0.504 3.216,1.52 C -0.431,-0.912 0,-0.268 0,0 M 6.431,-9.317 H 0 v 2.812 h -0.159 c -1.528,-2.25 -3.472,-3.375 -5.83,-3.375 -2.867,0 -5.295,1.687 -7.293,5.066 -1.998,3.375 -2.995,7.917 -2.995,13.619 0,5.738 0.99,10.392 2.972,13.973 1.986,3.576 4.531,5.365 7.642,5.365 2.168,0 4.057,-0.99 5.663,-2.976 v 20.501 h 6.431 z"
             style="fill:#434142;fill-opacity:1;fill-rule:nonzero;stroke:none"
             id="path1545" /></g><g
           id="g1547"
           transform="translate(366.7151,88.0459)"><path
             d="M 0,0 H 7.114 C 7.114,6.808 5.885,10.21 3.417,10.21 1.14,10.21 0,6.808 0,0 m 12.824,-13.061 v -6.354 c -2.281,-2.141 -4.783,-3.212 -7.514,-3.212 -3.7,0 -6.567,1.661 -8.607,4.985 -2.037,3.321 -3.049,8.092 -3.049,14.306 0,6.055 0.884,10.764 2.673,14.128 1.776,3.363 4.263,5.046 7.451,5.046 6.649,0 9.903,-6.885 9.771,-20.66 H 0.081 c 0,-7.905 2.165,-11.858 6.49,-11.858 2.351,0 4.434,1.203 6.253,3.619"
             style="fill:#434142;fill-opacity:1;fill-rule:nonzero;stroke:none"
             id="path1549" /></g><g
           id="g1551"
           transform="translate(301.331,55.216)"><path
             d="m 0,0 c -1.036,0 -1.874,0.842 -1.874,1.877 v 158.192 c 0,1.036 0.838,1.874 1.874,1.874 1.04,0 1.874,-0.838 1.874,-1.874 V 1.877 C 1.874,0.842 1.04,0 0,0"
             style="fill:#434142;fill-opacity:1;fill-rule:nonzero;stroke:none"
             id="path1553" /></g></g></g></g></svg>
