<?xml version="1.0" encoding="UTF-8" standalone="no"?>
<svg
   viewBox="0 0 210 297"
   version="1.1"
   id="svg1191"
   sodipodi:docname="marker_museo_memoria.svg"
   inkscape:version="1.1.2 (b8e25be8, 2022-02-05)"
   xmlns:inkscape="http://www.inkscape.org/namespaces/inkscape"
   xmlns:sodipodi="http://sodipodi.sourceforge.net/DTD/sodipodi-0.dtd"
   xmlns="http://www.w3.org/2000/svg"
   xmlns:svg="http://www.w3.org/2000/svg">
  <defs
     id="defs840" />
  <sodipodi:namedview
     id="namedview838"
     pagecolor="#ffffff"
     bordercolor="#666666"
     borderopacity="1.0"
     inkscape:pageshadow="2"
     inkscape:pageopacity="0.0"
     inkscape:pagecheckerboard="0"
     showgrid="false"
     inkscape:zoom="2.6238095"
     inkscape:cx="125.58076"
     inkscape:cy="135.49002"
     inkscape:window-width="1919"
     inkscape:window-height="1027"
     inkscape:window-x="0"
     inkscape:window-y="25"
     inkscape:window-maximized="0"
     inkscape:current-layer="svg1191" />
  <path
     class="cls-4"
     d="m 157.6887,293.41368 c -0.59205,0 -1.19076,-0.19957 -1.67637,-0.61866 -14.36892,-12.14041 -26.17007,-28.44515 -35.07081,-48.46185 -7.10464,-15.97212 -12.37324,-34.17276 -16.59079,-57.28277 -3.20639,-17.54871 -5.913868,-34.92446 -3.86497,-54.62186 0.14635,-1.43024 1.41694,-2.46134 2.86048,-2.32164 1.43024,0.14635 2.468,1.43024 2.32164,2.86048 -1.97572,19.01221 0.67189,35.98882 3.80511,53.14505 4.14437,22.69092 9.29988,40.51903 16.22491,56.09866 8.58143,19.29826 19.91026,34.97768 33.66718,46.60586 1.09762,0.92467 1.23732,2.56778 0.306,3.66541 -0.51222,0.61201 -1.25063,0.92467 -1.98903,0.92467 z"
     id="path890"
     style="stroke-width:0.665228" />
  <path
     class="cls-4"
     d="m 118.46022,167.72553 c -0.21288,-0.50557 -0.39249,-1.05771 -0.53219,-1.6165 -5.68769,7.74325 -9.55267,14.80132 -12.64598,23.03018 l 4.86947,1.83603 c 2.69417,-7.15785 6.04027,-13.40434 10.77669,-20.09653 -1.20406,-0.62531 -1.95577,-1.94912 -2.46134,-3.14653 z"
     id="path892"
     style="stroke-width:0.665228" />
  <path
     class="cls-4"
     d="m 119.72415,173.80571 c -0.34592,0 -0.68519,-0.007 -1.02445,-0.0266 l 0.21287,-4.65659 -3.18644,0.68518 c -2.06221,-9.57928 3.55232,-25.35183 12.02067,-33.747 8.13573,-8.06922 17.6751,-13.17152 26.75546,-17.70837 0.83819,-0.41244 1.83603,-0.35257 2.61435,0.16631 0.77831,0.51887 1.21736,1.41693 1.15084,2.34825 -0.8648,11.94749 -2.16199,23.53576 -8.50826,33.95323 -8.58144,14.07622 -21.28729,18.9856 -30.02839,18.9856 z m 32.982,-48.70798 c -7.5836,3.9315 -14.85454,8.26878 -21.2873,14.65497 -7.21107,7.1512 -12.24019,20.80833 -10.63034,28.79106 4.57012,-0.31266 16.0586,-2.54117 24.52695,-16.43778 4.95595,-8.13574 6.53254,-17.37575 7.39734,-27.00825 z"
     id="path894"
     style="stroke-width:0.665228" />
  <path
     class="cls-4"
     d="m 105.50823,136.16712 -3.09996,-1.80942 -2.26843,1.39033 C 93.281346,124.5589 90.114866,110.24984 91.219146,95.448524 92.157116,82.889023 95.922302,69.990255 102.71427,56.02047 c 0.42575,-0.8781 1.31715,-1.443544 2.29504,-1.463501 0.89806,0 1.88259,0.518878 2.3416,1.383674 13.41099,25.318572 12.71916,55.307047 -1.84933,80.226477 z m -0.39248,-72.948885 c -5.06904,11.481833 -7.922868,22.198654 -8.701178,32.616122 -0.93132,12.446413 1.37037,24.473733 6.505918,34.259233 10.94965,-21.0345 11.73462,-45.428409 2.20191,-66.875355 z"
     id="path896"
     style="stroke-width:0.665228" />
  <path
     class="cls-4"
     d="m 104.73657,186.80426 c -5.488128,-5.67439 -11.095994,-13.58395 -16.051944,-20.55554 -1.70964,-2.40812 -3.36605,-4.74307 -4.93599,-6.8718 l 4.19093,-3.08666 c 1.5899,2.15534 3.25962,4.51025 4.98921,6.94498 4.842856,6.82524 10.337634,14.56184 15.546374,19.95019 z"
     id="path898"
     style="stroke-width:0.665228" />
  <path
     class="cls-4"
     d="m 85.624576,161.82496 c -9.32649,-0.14635 -18.76608,-4.55681 -26.58916,-12.41315 -7.03811,-7.06472 -11.79449,-15.71268 -15.89229,-24.00807 -4.46368,-9.0338 -9.25997,-19.86371 -10.98291,-31.678156 -0.1397,-0.971232 0.27939,-1.942465 1.08432,-2.507909 0.80493,-0.565443 1.86264,-0.625314 2.72743,-0.159654 33.5541,18.060939 51.91438,41.157649 53.10514,66.788879 l -3.38601,0.15965 -0.0599,3.82506 z m -47.2977,-63.489347 c 2.09547,9.060407 5.90057,17.502147 9.4795,24.759777 3.89823,7.89626 8.40848,16.10517 14.91441,22.63771 6.21322,6.23984 13.78352,10.0915 21.05446,10.77669 -2.06886,-26.97499 -24.75978,-46.16016 -45.44837,-58.174177 z"
     id="path900"
     style="stroke-width:0.665228" />
  <path
     class="cls-4"
     d="m 122.24536,245.77006 c -6.53253,-4.49029 -11.00287,-7.80312 -15.32685,-11.00287 -4.29072,-3.17313 -8.727788,-6.45271 -15.180494,-10.89643 l 2.94696,-4.29072 c 6.532534,4.49029 11.002864,7.80312 15.326844,11.00287 4.29072,3.17314 8.72779,6.45271 15.1805,10.89643 z"
     id="path902"
     style="stroke-width:0.665228" />
  <path
     class="cls-4"
     d="m 83.894986,225.79992 c -9.3398,0 -18.33368,-2.80726 -25.28531,-8.10247 -4.84286,-3.68537 -8.78766,-8.32866 -12.00737,-12.38655 -3.44588,-4.33728 -6.58575,-9.43293 -9.62584,-14.36227 -1.94912,-3.15983 -3.78515,-6.14005 -5.68105,-8.9074 -0.57875,-0.85149 -0.60536,-1.96242 -0.0665,-2.84052 0.53883,-0.8781 1.53002,-1.33711 2.56778,-1.21071 16.08521,2.2152 28.26553,6.00035 38.31712,11.90757 12.90542,7.5836 22.07226,19.08539 25.145616,31.54511 l -3.465836,0.85814 0.53218,2.3283 c -3.46584,0.78497 -6.97159,1.1708 -10.43077,1.1708 z m -45.08915,-41.76966 c 0.87811,1.39033 1.7429,2.80061 2.60105,4.18429 2.96026,4.80294 6.02031,9.76554 9.27327,13.86335 3.02014,3.8051 6.69885,8.14904 11.0827,11.48183 7.8896,6.00035 18.85921,8.322 29.64255,6.35958 -3.35275,-10.03829 -11.20244,-19.23174 -21.92591,-25.53145 -8.23552,-4.8362 -18.08089,-8.17565 -30.667,-10.35094 z"
     id="path904"
     style="stroke-width:0.665228" />
  <path
     class="cls-4"
     d="m 130.44097,252.67513 -5.18213,-0.50558 c 0.69184,-7.09133 3.7785,-16.43113 6.52589,-22.53126 l 5.72096,-12.74577 4.74973,2.13538 -5.72096,12.74577 c -2.57443,5.7143 -5.45487,14.39553 -6.09349,20.90811 z"
     id="path906"
     style="stroke-width:0.665228" />
  <path
     class="cls-4"
     d="m 143.47278,221.07015 c -1.38367,0 -2.72078,-0.12639 -3.9581,-0.38583 l 0.61201,-2.88044 -2.97357,0.65858 c -2.6343,-11.93419 1.4635,-25.90397 10.96961,-37.3725 8.40182,-10.13807 19.418,-17.28927 30.06829,-24.20099 0.8515,-0.54549 1.94247,-0.55879 2.80061,-0.0266 0.85815,0.53883 1.32381,1.52337 1.20407,2.52787 -1.25728,10.11146 -2.55448,20.56884 -5.94714,30.63374 -3.83837,11.37539 -9.99172,20.48902 -17.79485,26.36963 -3.87162,2.9137 -9.76554,4.67655 -14.97427,4.67655 z m -1.53002,-5.27526 c 4.33063,0.42575 10.03829,-1.05106 13.37773,-3.55896 6.95828,-5.242 12.49298,-13.49748 15.99208,-23.87503 2.621,-7.76986 3.9448,-15.95217 5.00916,-24.03468 -8.78766,5.79413 -17.48884,12.00736 -24.18768,20.08988 -8.06921,9.73893 -11.81445,21.34716 -10.19129,31.38545 z"
     id="path908"
     style="stroke-width:0.665228" />
  <path
     class="cls-4"
     d="m 148.72143,266.05951 c -0.96458,0 -1.88925,-0.53883 -2.3416,-1.4635 -0.63197,-1.29054 -0.0931,-2.84718 1.20406,-3.47914 32.38994,-15.75925 52.51309,-47.90306 52.51309,-83.90519 0,-44.384 -31.55176,-82.854129 -75.01775,-91.46883 -1.41028,-0.279395 -2.32829,-1.649765 -2.0489,-3.060048 0.2794,-1.410283 1.65642,-2.314993 3.06005,-2.048902 45.90072,9.093665 79.21533,49.70583 79.21533,96.57113 0,38.00446 -21.24738,71.95104 -55.44009,88.58174 -0.36587,0.17961 -0.7517,0.25944 -1.13754,0.25944 z"
     id="path910"
     style="stroke-width:0.665228" />
  <path
     class="cls-4"
     d="m 57.438876,97.670385 c -0.8781,0 -1.7429,-0.445702 -2.22852,-1.25728 -0.74505,-1.230672 -0.34592,-2.827219 0.88476,-3.572274 8.82757,-5.321822 18.38024,-9.200101 28.40523,-11.528398 1.38367,-0.332614 2.79395,0.545487 3.11991,1.949117 0.32597,1.396979 -0.54548,2.80061 -1.94911,3.119919 -9.49281,2.201904 -18.5399,5.873962 -26.89517,10.916389 -0.41909,0.252786 -0.88475,0.372527 -1.34376,0.372527 z"
     id="path912"
     style="stroke-width:0.665228" />
  <path
     class="cls-4"
     d="m 106.85199,275.6654 c -54.289234,0 -98.4537139,-44.16448 -98.4537139,-98.44707 0,-21.71304 6.9316699,-42.30849 20.0433099,-59.55119 0.87145,-1.1442 2.50126,-1.36372 3.64545,-0.49893 1.1442,0.87145 1.36372,2.50126 0.49892,3.64545 -12.4198,16.32469 -18.9856,35.82917 -18.9856,56.39802 0,51.41546 41.82953,93.24499 93.244984,93.24499 6.25314,0 12.50628,-0.62532 18.58646,-1.84934 1.40363,-0.27274 2.78066,0.62532 3.0667,2.0356 0.28605,1.41028 -0.62531,2.78065 -2.03559,3.0667 -6.41945,1.29719 -13.01851,1.95577 -19.61757,1.95577 z"
     id="path914"
     style="stroke-width:0.665228" />
</svg>
