<?xml version="1.0" encoding="UTF-8" standalone="no"?>
<!-- Created with Inkscape (http://www.inkscape.org/) -->

<svg
   width="210mm"
   height="297mm"
   viewBox="0 0 210 297"
   version="1.1"
   id="svg1030"
   inkscape:version="1.1.2 (b8e25be8, 2022-02-05)"
   sodipodi:docname="marker_museo_memoria2.svg"
   xmlns:inkscape="http://www.inkscape.org/namespaces/inkscape"
   xmlns:sodipodi="http://sodipodi.sourceforge.net/DTD/sodipodi-0.dtd"
   xmlns="http://www.w3.org/2000/svg"
   xmlns:svg="http://www.w3.org/2000/svg">
  <sodipodi:namedview
     id="namedview1032"
     pagecolor="#ffffff"
     bordercolor="#666666"
     borderopacity="1.0"
     inkscape:pageshadow="2"
     inkscape:pageopacity="0.0"
     inkscape:pagecheckerboard="0"
     inkscape:document-units="mm"
     showgrid="false"
     inkscape:zoom="0.75455247"
     inkscape:cx="473.12813"
     inkscape:cy="243.19051"
     inkscape:window-width="1920"
     inkscape:window-height="1027"
     inkscape:window-x="0"
     inkscape:window-y="25"
     inkscape:window-maximized="1"
     inkscape:current-layer="layer1" />
  <defs
     id="defs1027" />
  <g
     inkscape:label="Capa 1"
     inkscape:groupmode="layer"
     id="layer1"
     style="display:inline">
    <path
       class="cls-4"
       d="m 61.596078,97.292853 c -0.23548,0 -0.4736,-0.07937 -0.66675,-0.246063 -5.715,-4.828645 -10.4087,-11.313583 -13.94883,-19.274895 -2.82575,-6.352646 -4.92125,-13.591646 -6.598708,-22.783271 -1.275292,-6.979708 -2.352146,-13.890625 -1.537229,-21.724937 0.05821,-0.568854 0.563562,-0.978958 1.137708,-0.923396 0.568854,0.05821 0.981604,0.568854 0.923396,1.137708 -0.785812,7.561792 0.267229,14.313959 1.513413,21.137563 1.64836,9.024937 3.69888,16.11577 6.45319,22.312312 3.41313,7.675562 7.91898,13.911791 13.39056,18.536708 0.43657,0.367771 0.49213,1.021292 0.12171,1.457854 -0.20373,0.243417 -0.49741,0.367771 -0.7911,0.367771 z"
       id="path890"
       style="fill:#2c4d4d;stroke-width:0px" />
    <path
       class="cls-4"
       d="m 45.993598,47.302478 c -0.0847,-0.201083 -0.1561,-0.420687 -0.21166,-0.642937 -2.26219,3.07975 -3.79942,5.886979 -5.029731,9.159875 l 1.936751,0.73025 c 1.07156,-2.846917 2.40242,-5.331354 4.28625,-7.993063 -0.4789,-0.248708 -0.77788,-0.775229 -0.97896,-1.251479 z"
       id="path892"
       style="fill:#2c4d4d;stroke-width:0px" />
    <path
       class="cls-4"
       d="m 46.496308,49.72077 c -0.13758,0 -0.27252,-0.0026 -0.40746,-0.01058 l 0.0847,-1.852084 -1.26735,0.272521 c -0.82021,-3.81 1.41287,-10.08327 4.78102,-13.422312 3.23585,-3.209396 7.02998,-5.23875 10.64154,-7.043208 0.33337,-0.164042 0.73025,-0.140229 1.03981,0.06615 0.30956,0.206375 0.48419,0.563563 0.45773,0.933979 -0.34396,4.751916 -0.85989,9.360958 -3.38402,13.504333 -3.41312,5.598583 -8.46667,7.551208 -11.94329,7.551208 z m 13.11804,-19.372791 c -3.01625,1.563687 -5.90814,3.28877 -8.46666,5.82877 -2.86809,2.844271 -4.86834,8.276167 -4.22804,11.451167 1.81768,-0.124354 6.38704,-1.010708 9.75518,-6.537854 1.97115,-3.235854 2.59821,-6.910917 2.94217,-10.742083 z"
       id="path894"
       style="fill:#2c4d4d;stroke-width:0px" />
    <path
       class="cls-4"
       d="m 40.842165,34.750645 -1.232958,-0.719666 -0.902229,0.552979 C 35.979123,30.133666 34.719707,24.442479 35.158915,18.5555 c 0.373063,-4.995333 1.870604,-10.1256037 4.572,-15.6818537 0.169333,-0.34925 0.523875,-0.574146 0.912813,-0.582084 0.357187,0 0.74877,0.206375 0.93133,0.550334 5.334,10.0700417 5.05884,21.9974577 -0.735539,31.9087487 z M 40.686061,5.7364373 c -2.016125,4.5667087 -3.151188,8.8291457 -3.46075,12.9725207 -0.370417,4.950354 0.545042,9.734021 2.587625,13.626041 4.355042,-8.366124 4.667252,-18.068395 0.875771,-26.5985617 z"
       id="path896"
       style="fill:#2c4d4d;stroke-width:0px" />
    <path
       class="cls-4"
       d="m 40.535248,54.890728 c -2.182812,-2.256895 -4.41325,-5.402791 -6.384395,-8.175625 -0.679979,-0.957791 -1.338792,-1.886479 -1.963209,-2.733145 l 1.666875,-1.227667 c 0.632355,0.85725 1.296459,1.793875 1.984375,2.76225 1.926167,2.714625 4.111625,5.791729 6.183314,7.934854 z"
       id="path898"
       style="fill:#2c4d4d;stroke-width:0px" />
    <path
       class="cls-4"
       d="m 32.933769,44.955624 c -3.709458,-0.05821 -7.463895,-1.812396 -10.575395,-4.937125 -2.799292,-2.809875 -4.691063,-6.249458 -6.320896,-9.548812 -1.775354,-3.593041 -3.683,-7.900458 -4.368271,-12.599458 -0.05556,-0.386292 0.111125,-0.772583 0.431271,-0.997479 0.320146,-0.224896 0.740833,-0.248708 1.084792,-0.0635 13.345583,7.183437 20.648083,16.36977 21.121687,26.564166 l -1.346729,0.0635 -0.02381,1.521354 z M 14.121895,19.703792 c 0.833437,3.603625 2.346854,6.961187 3.770312,9.847791 1.550458,3.140604 3.344333,6.405562 5.931958,9.003771 2.471209,2.481791 5.482167,4.013729 8.374063,4.286249 C 31.375374,32.112749 22.350436,24.482167 14.121895,19.703792 Z"
       id="path900"
       style="fill:#2c4d4d;stroke-width:0px" />
    <path
       class="cls-4"
       d="m 47.499078,78.343395 c -2.5982,-1.785938 -4.3762,-3.103563 -6.095996,-4.376209 -1.706563,-1.262062 -3.471334,-2.566458 -6.037792,-4.333875 l 1.172104,-1.706562 c 2.598209,1.785937 4.376209,3.103562 6.096004,4.376208 1.70656,1.262063 3.47133,2.566459 6.03779,4.333875 z"
       id="path902"
       style="fill:#2c4d4d;stroke-width:0px" />
    <path
       class="cls-4"
       d="m 32.245853,70.400603 c -3.71475,0 -7.291917,-1.116542 -10.056813,-3.222625 -1.926166,-1.465791 -3.495145,-3.312583 -4.775729,-4.926541 -1.370541,-1.725084 -2.619375,-3.751792 -3.828521,-5.712355 -0.775229,-1.25677 -1.505479,-2.442104 -2.259541,-3.54277 -0.230188,-0.338667 -0.240771,-0.780521 -0.02646,-1.129771 0.214313,-0.34925 0.608542,-0.531813 1.021292,-0.481542 6.397625,0.881063 11.242146,2.386542 15.24,4.736042 5.132917,3.01625 8.778875,7.590896 10.00125,12.546541 l -1.378479,0.341313 0.211666,0.926041 c -1.378479,0.312209 -2.772833,0.465667 -4.148666,0.465667 z M 14.312395,53.787416 c 0.34925,0.552979 0.693208,1.113896 1.03452,1.664229 1.177396,1.910292 2.39448,3.884083 3.688292,5.513917 1.201208,1.513416 2.664354,3.241145 4.407958,4.566708 3.137959,2.386541 7.500938,3.309937 11.789834,2.529416 -1.3335,-3.992562 -4.455584,-7.649104 -8.720667,-10.154708 C 23.23679,55.983457 19.320957,54.655249 14.31504,53.790062 Z"
       id="path904"
       style="fill:#2c4d4d;stroke-width:0px" />
    <path
       class="cls-4"
       d="m 50.758748,81.08977 -2.0611,-0.201084 c 0.27516,-2.820458 1.50283,-6.535208 2.59556,-8.961437 l 2.27542,-5.069417 1.88912,0.849313 -2.27542,5.069416 c -1.02393,2.272771 -2.16958,5.725584 -2.42358,8.315854 z"
       id="path906"
       style="fill:#2c4d4d;stroke-width:0px" />
    <path
       class="cls-4"
       d="m 55.941938,68.519416 c -0.55034,0 -1.08215,-0.05027 -1.57427,-0.153459 l 0.24341,-1.145645 -1.18268,0.261937 c -1.04775,-4.746625 0.58208,-10.302875 4.36298,-14.864291 3.34168,-4.03225 7.72318,-6.876521 11.95916,-9.625542 0.33867,-0.216958 0.77259,-0.22225 1.1139,-0.01058 0.34131,0.214312 0.52652,0.605895 0.47889,1.005416 -0.50006,4.021667 -1.016,8.180917 -2.36537,12.184063 -1.52665,4.524375 -3.97404,8.149166 -7.07761,10.488083 -1.53987,1.158875 -3.88408,1.860021 -5.95577,1.860021 z m -0.60854,-2.098146 c 1.72243,0.169333 3.99256,-0.418042 5.32077,-1.415521 2.76754,-2.084917 4.96887,-5.368396 6.36058,-9.495896 1.04246,-3.090333 1.56898,-6.344708 1.99231,-9.559395 -3.49514,2.30452 -6.95589,4.775729 -9.62025,7.990416 -3.20939,3.8735 -4.699,8.490479 -4.05341,12.483042 z"
       id="path908"
       style="fill:#2c4d4d;stroke-width:0px" />
    <path
       class="cls-4"
       d="m 58.029498,86.413186 c -0.38365,0 -0.75142,-0.214312 -0.93133,-0.582083 -0.25136,-0.513292 -0.037,-1.132417 0.47889,-1.383771 12.88257,-6.267979 20.88621,-19.052645 20.88621,-33.371895 0,-17.653 -12.54919,-32.953854 -29.83706,-36.380208 -0.56092,-0.111125 -0.92604,-0.656166 -0.81492,-1.217083 0.11113,-0.560917 0.65881,-0.92075 1.21709,-0.814917 18.25625,3.616854 31.50658,19.769666 31.50658,38.409562 0,15.115646 -8.45079,28.617333 -22.05038,35.231916 -0.14552,0.07144 -0.29898,0.103188 -0.45243,0.103188 z"
       id="path910"
       style="fill:#2c4d4d;stroke-width:0px" />
    <path
       class="cls-4"
       d="m 21.723374,19.439208 c -0.34925,0 -0.693209,-0.177271 -0.886354,-0.500062 -0.296334,-0.489479 -0.137584,-1.124479 0.351895,-1.420813 3.511021,-2.116666 7.310438,-3.659187 11.297709,-4.585229 0.550333,-0.132291 1.11125,0.216959 1.240895,0.775229 0.129646,0.555625 -0.216958,1.113896 -0.775229,1.240896 -3.775604,0.875771 -7.373937,2.336271 -10.697104,4.341813 -0.166687,0.100541 -0.351896,0.148166 -0.534458,0.148166 z"
       id="path912"
       style="fill:#2c4d4d;stroke-width:0px" />
    <path
       class="cls-4"
       d="m 41.376623,90.23377 c -21.592645,0 -39.1583316,-17.565688 -39.1583316,-39.155687 0,-8.636 2.756958,-16.8275 7.9718946,-23.6855 0.346604,-0.455083 0.994834,-0.542396 1.449917,-0.198437 0.455083,0.346604 0.542396,0.994833 0.198437,1.449916 -4.9397696,6.492875 -7.5512076,14.250458 -7.5512076,22.431375 0,20.449645 16.6369996,37.086645 37.0866456,37.086645 2.48708,0 4.97417,-0.248708 7.39246,-0.735542 0.55827,-0.108479 1.10596,0.248709 1.21973,0.809625 0.11377,0.560917 -0.24871,1.105959 -0.80963,1.21973 -2.55323,0.515937 -5.17789,0.777875 -7.80256,0.777875 z"
       id="path914"
       style="fill:#2c4d4d;stroke-width:0px" />
  </g>
</svg>
